ffmpeg version 5.0-essentials_build-www.gyan.dev Copyright (c) 2000-2022 the FFmpeg developers
  built with gcc 11.2.0 (Rev5, Built by MSYS2 project)
  configuration: --enable-gpl --enable-version3 --enable-static --disable-w32threads --disable-autodetect --enable-fontconfig --enable-iconv --enable-gnutls --enable-libxml2 --enable-gmp --enable-lzma --enable-zlib --enable-libsrt --enable-libssh --enable-libzmq --enable-avisynth --enable-sdl2 --enable-libwebp --enable-libx264 --enable-libx265 --enable-libxvid --enable-libaom --enable-libopenjpeg --enable-libvpx --enable-libass --enable-libfreetype --enable-libfribidi --enable-libvidstab --enable-libvmaf --enable-libzimg --enable-amf --enable-cuda-llvm --enable-cuvid --enable-ffnvcodec --enable-nvdec --enable-nvenc --enable-d3d11va --enable-dxva2 --enable-libmfx --enable-libgme --enable-libopenmpt --enable-libopencore-amrwb --enable-libmp3lame --enable-libtheora --enable-libvo-amrwbenc --enable-libgsm --enable-libopencore-amrnb --enable-libopus --enable-libspeex --enable-libvorbis --enable-librubberband
  libavutil      57. 17.100 / 57. 17.100
  libavcodec     59. 18.100 / 59. 18.100
  libavformat    59. 16.100 / 59. 16.100
  libavdevice    59.  4.100 / 59.  4.100
  libavfilter     8. 24.100 /  8. 24.100
  libswscale      6.  4.100 /  6.  4.100
  libswresample   4.  3.100 /  4.  3.100
  libpostproc    56.  3.100 / 56.  3.100
Splitting the commandline.
Reading option '-v' ... matched as option 'v' (set logging level) with argument 'debug'.
Reading option '-nostdin' ... matched as option 'stdin' (enable or disable interaction on standard input) with argument 0.
Reading option '-progress' ... matched as option 'progress' (write program-readable progress information) with argument 'C:/Users/MicroHard/AppData/Local/Temp/KritaFFmpegProgress.SSCSnh'.
Reading option '-r' ... matched as option 'r' (set frame rate (Hz value, fraction or abbreviation)) with argument '10'.
Reading option '-start_number' ... matched as AVOption 'start_number' with argument '0'.
Reading option '-i' ... matched as input url with argument 'D:/GithubProjects/DuxMovil/resources/obstacles/light_pole_electric/light_pole_electric%04d.png'.
Reading option '-i' ... matched as input url with argument 'D:/GithubProjects/DuxMovil/resources/obstacles/light_pole_electric/palette.png'.
Reading option '-lavfi' ... matched as option 'lavfi' (create a complex filtergraph) with argument '[0:v][1:v] paletteuse'.
Reading option '-y' ... matched as option 'y' (overwrite output files) with argument '1'.
Reading option 'D:/GithubProjects/DuxMovil/resources/obstacles/light_pole_electric/light_pole_electric.gif' ... matched as output url.
Finished splitting the commandline.
Parsing a group of options: global .
Applying option v (set logging level) with argument debug.
Applying option nostdin (enable or disable interaction on standard input) with argument 0.
Applying option progress (write program-readable progress information) with argument C:/Users/MicroHard/AppData/Local/Temp/KritaFFmpegProgress.SSCSnh.
[file @ 000001429596bc40] Setting default whitelist 'file,crypto,data'
Applying option lavfi (create a complex filtergraph) with argument [0:v][1:v] paletteuse.
Applying option y (overwrite output files) with argument 1.
Successfully parsed a group of options.
Parsing a group of options: input url D:/GithubProjects/DuxMovil/resources/obstacles/light_pole_electric/light_pole_electric%04d.png.
Applying option r (set frame rate (Hz value, fraction or abbreviation)) with argument 10.
Successfully parsed a group of options.
Opening an input file: D:/GithubProjects/DuxMovil/resources/obstacles/light_pole_electric/light_pole_electric%04d.png.
[image2 @ 00000142959ac280] Opening 'D:/GithubProjects/DuxMovil/resources/obstacles/light_pole_electric/light_pole_electric0000.png' for reading
[file @ 00000142959af540] Setting default whitelist 'file,crypto,data'
[AVIOContext @ 00000142959b76c0] Statistics: 2381 bytes read, 0 seeks
[image2 @ 00000142959ac280] Opening 'D:/GithubProjects/DuxMovil/resources/obstacles/light_pole_electric/light_pole_electric0001.png' for reading
[file @ 00000142959b8340] Setting default whitelist 'file,crypto,data'
[AVIOContext @ 00000142959c0f80] Statistics: 2411 bytes read, 0 seeks
[image2 @ 00000142959ac280] Opening 'D:/GithubProjects/DuxMovil/resources/obstacles/light_pole_electric/light_pole_electric0002.png' for reading
[file @ 00000142959c1b00] Setting default whitelist 'file,crypto,data'
[AVIOContext @ 00000142959c9c40] Statistics: 2391 bytes read, 0 seeks
[image2 @ 00000142959ac280] Opening 'D:/GithubProjects/DuxMovil/resources/obstacles/light_pole_electric/light_pole_electric0003.png' for reading
[file @ 00000142959ca980] Setting default whitelist 'file,crypto,data'
[AVIOContext @ 00000142959c9b40] Statistics: 2434 bytes read, 0 seeks
[image2 @ 00000142959ac280] Opening 'D:/GithubProjects/DuxMovil/resources/obstacles/light_pole_electric/light_pole_electric0004.png' for reading
[file @ 00000142959caa40] Setting default whitelist 'file,crypto,data'
[AVIOContext @ 00000142959c9b40] Statistics: 2455 bytes read, 0 seeks
[image2 @ 00000142959ac280] Opening 'D:/GithubProjects/DuxMovil/resources/obstacles/light_pole_electric/light_pole_electric0005.png' for reading
[file @ 00000142959cac40] Setting default whitelist 'file,crypto,data'
[AVIOContext @ 00000142959c9b40] Statistics: 2463 bytes read, 0 seeks
[image2 @ 00000142959ac280] Opening 'D:/GithubProjects/DuxMovil/resources/obstacles/light_pole_electric/light_pole_electric0006.png' for reading
[file @ 00000142959cae40] Setting default whitelist 'file,crypto,data'
[AVIOContext @ 00000142959c9b40] Statistics: 2546 bytes read, 0 seeks
[image2 @ 00000142959ac280] Opening 'D:/GithubProjects/DuxMovil/resources/obstacles/light_pole_electric/light_pole_electric0007.png' for reading
[file @ 00000142959b0980] Setting default whitelist 'file,crypto,data'
[AVIOContext @ 00000142959c9b40] Statistics: 3012 bytes read, 0 seeks
[image2 @ 00000142959ac280] Opening 'D:/GithubProjects/DuxMovil/resources/obstacles/light_pole_electric/light_pole_electric0008.png' for reading
[file @ 00000142959b0980] Setting default whitelist 'file,crypto,data'
[AVIOContext @ 00000142959c9b40] Statistics: 2815 bytes read, 0 seeks
[image2 @ 00000142959ac280] Opening 'D:/GithubProjects/DuxMovil/resources/obstacles/light_pole_electric/light_pole_electric0009.png' for reading
[file @ 00000142959b0980] Setting default whitelist 'file,crypto,data'
[AVIOContext @ 00000142959c9b40] Statistics: 2705 bytes read, 0 seeks
[image2 @ 00000142959ac280] Opening 'D:/GithubProjects/DuxMovil/resources/obstacles/light_pole_electric/light_pole_electric0010.png' for reading
[file @ 00000142959b0980] Setting default whitelist 'file,crypto,data'
[AVIOContext @ 00000142959c9b40] Statistics: 2535 bytes read, 0 seeks
[image2 @ 00000142959ac280] Opening 'D:/GithubProjects/DuxMovil/resources/obstacles/light_pole_electric/light_pole_electric0011.png' for reading
[file @ 00000142959b0980] Setting default whitelist 'file,crypto,data'
[AVIOContext @ 00000142959c9b40] Statistics: 2381 bytes read, 0 seeks
[image2 @ 00000142959ac280] Opening 'D:/GithubProjects/DuxMovil/resources/obstacles/light_pole_electric/light_pole_electric0012.png' for reading
[file @ 00000142959b0980] Setting default whitelist 'file,crypto,data'
[AVIOContext @ 00000142959c9b40] Statistics: 2381 bytes read, 0 seeks
[image2 @ 00000142959ac280] Opening 'D:/GithubProjects/DuxMovil/resources/obstacles/light_pole_electric/light_pole_electric0013.png' for reading
[file @ 00000142959b0980] Setting default whitelist 'file,crypto,data'
[AVIOContext @ 00000142959c9b40] Statistics: 2381 bytes read, 0 seeks
Input #0, image2, from 'D:/GithubProjects/DuxMovil/resources/obstacles/light_pole_electric/light_pole_electric%04d.png':
  Duration: 00:00:00.56, start: 0.000000, bitrate: N/A
  Stream #0:0, 14, 1/25: Video: png, 1 reference frame, rgba(pc), 80x80 [SAR 11811:11811 DAR 1:1], 0/1, 25 fps, 25 tbr, 25 tbn
Successfully opened the file.
Parsing a group of options: input url D:/GithubProjects/DuxMovil/resources/obstacles/light_pole_electric/palette.png.
Successfully parsed a group of options.
Opening an input file: D:/GithubProjects/DuxMovil/resources/obstacles/light_pole_electric/palette.png.
[NULL @ 00000142959ae980] Opening 'D:/GithubProjects/DuxMovil/resources/obstacles/light_pole_electric/palette.png' for reading
[file @ 00000142959ac180] Setting default whitelist 'file,crypto,data'
[png_pipe @ 00000142959ae980] Format png_pipe probed with size=2048 and score=99
[png_pipe @ 00000142959ae980] Before avformat_find_stream_info() pos: 0 bytes read:289 seeks:0 nb_streams:1
[png_pipe @ 00000142959ae980] After avformat_find_stream_info() pos: 289 bytes read:289 seeks:0 frames:1
Input #1, png_pipe, from 'D:/GithubProjects/DuxMovil/resources/obstacles/light_pole_electric/palette.png':
  Duration: N/A, bitrate: N/A
  Stream #1:0, 1, 1/25: Video: png, 1 reference frame, rgba(pc), 16x16 [SAR 1:1 DAR 1:1], 0/1, 25 fps, 25 tbr, 25 tbn
Successfully opened the file.
Parsing a group of options: output url D:/GithubProjects/DuxMovil/resources/obstacles/light_pole_electric/light_pole_electric.gif.
Successfully parsed a group of options.
Opening an output file: D:/GithubProjects/DuxMovil/resources/obstacles/light_pole_electric/light_pole_electric.gif.
[file @ 00000142959bb7c0] Setting default whitelist 'file,crypto,data'
Successfully opened the file.
detected 12 logical cores
Stream mapping:
  Stream #0:0 (png) -> paletteuse
  Stream #1:0 (png) -> paletteuse
  paletteuse:default -> Stream #0:0 (gif)
cur_dts is invalid st:0 (0) [init:0 i_done:0 finish:0] (this is harmless if it occurs once at the start per stream)
[image2 @ 00000142959ac280] Thread message queue blocking; consider raising the thread_queue_size option (current value: 8)
cur_dts is invalid st:0 (0) [init:0 i_done:0 finish:0] (this is harmless if it occurs once at the start per stream)
    Last message repeated 13 times
[graph 0 input from stream 0:0 @ 0000014295a29b80] Setting 'video_size' to value '80x80'
[graph 0 input from stream 0:0 @ 0000014295a29b80] Setting 'pix_fmt' to value '26'
[graph 0 input from stream 0:0 @ 0000014295a29b80] Setting 'time_base' to value '1/10'
[graph 0 input from stream 0:0 @ 0000014295a29b80] Setting 'pixel_aspect' to value '11811/11811'
[graph 0 input from stream 0:0 @ 0000014295a29b80] Setting 'frame_rate' to value '10/1'
[graph 0 input from stream 0:0 @ 0000014295a29b80] w:80 h:80 pixfmt:rgba tb:1/10 fr:10/1 sar:11811/11811
[graph 0 input from stream 1:0 @ 0000014295a29980] Setting 'video_size' to value '16x16'
[graph 0 input from stream 1:0 @ 0000014295a29980] Setting 'pix_fmt' to value '26'
[graph 0 input from stream 1:0 @ 0000014295a29980] Setting 'time_base' to value '1/25'
[graph 0 input from stream 1:0 @ 0000014295a29980] Setting 'pixel_aspect' to value '1/1'
[graph 0 input from stream 1:0 @ 0000014295a29980] Setting 'frame_rate' to value '25/1'
[graph 0 input from stream 1:0 @ 0000014295a29980] w:16 h:16 pixfmt:rgba tb:1/25 fr:25/1 sar:1/1
[format @ 0000014295a2a980] Setting 'pix_fmts' to value 'rgb8|bgr8|rgb4_byte|bgr4_byte|gray|pal8'
[auto_scale_0 @ 0000014295a29f80] w:iw h:ih flags:'' interl:0
[Parsed_paletteuse_0 @ 0000014295a29a80] auto-inserting filter 'auto_scale_0' between the filter 'graph 0 input from stream 0:0' and the filter 'Parsed_paletteuse_0'
[auto_scale_1 @ 0000014295a2a680] w:iw h:ih flags:'' interl:0
[Parsed_paletteuse_0 @ 0000014295a29a80] auto-inserting filter 'auto_scale_1' between the filter 'graph 0 input from stream 1:0' and the filter 'Parsed_paletteuse_0'
[AVFilterGraph @ 0000014295abc180] query_formats: 5 queried, 4 merged, 2 already done, 0 delayed
[swscaler @ 0000014295ae0940] [swscaler @ 0000014295aedd00] Forcing full internal H chroma due to input having non subsampled chroma
[swscaler @ 0000014295ae0940] [swscaler @ 0000014295b02d40] Forcing full internal H chroma due to input having non subsampled chroma
[swscaler @ 0000014295ae0940] [swscaler @ 0000014295b15d40] Forcing full internal H chroma due to input having non subsampled chroma
[swscaler @ 0000014295ae0940] [swscaler @ 0000014295b2ad80] Forcing full internal H chroma due to input having non subsampled chroma
[swscaler @ 0000014295ae0940] [swscaler @ 0000014295b41dc0] Forcing full internal H chroma due to input having non subsampled chroma
[swscaler @ 0000014295ae0940] [swscaler @ 0000014295b553c0] Forcing full internal H chroma due to input having non subsampled chroma
[swscaler @ 0000014295ae0940] [swscaler @ 0000014295b6e9c0] Forcing full internal H chroma due to input having non subsampled chroma
[swscaler @ 0000014295ae0940] [swscaler @ 0000014295b81a00] Forcing full internal H chroma due to input having non subsampled chroma
[swscaler @ 0000014295ae0940] [swscaler @ 0000014295b97a40] Forcing full internal H chroma due to input having non subsampled chroma
[swscaler @ 0000014295ae0940] [swscaler @ 0000014295bacd80] Forcing full internal H chroma due to input having non subsampled chroma
[swscaler @ 0000014295ae0940] [swscaler @ 0000014295bbfd80] Forcing full internal H chroma due to input having non subsampled chroma
[swscaler @ 0000014295ae0940] [swscaler @ 0000014295bd4dc0] Forcing full internal H chroma due to input having non subsampled chroma
[swscaler @ 0000014295ae0940] [swscaler @ 0000014295be7e00] Forcing full internal H chroma due to input having non subsampled chroma
[auto_scale_0 @ 0000014295a29f80] w:80 h:80 fmt:rgba sar:11811/11811 -> w:80 h:80 fmt:bgra sar:1/1 flags:0x0
[swscaler @ 0000014295bfce00] [swscaler @ 0000014295c0be00] Forcing full internal H chroma due to input having non subsampled chroma
[swscaler @ 0000014295bfce00] [swscaler @ 0000014295c1fe40] Forcing full internal H chroma due to input having non subsampled chroma
[swscaler @ 0000014295bfce00] [swscaler @ 0000014296c500c0] Forcing full internal H chroma due to input having non subsampled chroma
[swscaler @ 0000014295bfce00] [swscaler @ 0000014296c5d080] Forcing full internal H chroma due to input having non subsampled chroma
[swscaler @ 0000014295bfce00] [swscaler @ 0000014296c6a040] Forcing full internal H chroma due to input having non subsampled chroma
[swscaler @ 0000014295bfce00] [swscaler @ 0000014296c85080] Forcing full internal H chroma due to input having non subsampled chroma
[swscaler @ 0000014295bfce00] [swscaler @ 0000014296c980c0] Forcing full internal H chroma due to input having non subsampled chroma
[swscaler @ 0000014295bfce00] [swscaler @ 0000014296cab0c0] Forcing full internal H chroma due to input having non subsampled chroma
[swscaler @ 0000014295bfce00] [swscaler @ 0000014296cbe100] Forcing full internal H chroma due to input having non subsampled chroma
[swscaler @ 0000014295bfce00] [swscaler @ 0000014296cd3480] Forcing full internal H chroma due to input having non subsampled chroma
[swscaler @ 0000014295bfce00] [swscaler @ 0000014296ce64c0] Forcing full internal H chroma due to input having non subsampled chroma
[swscaler @ 0000014295bfce00] [swscaler @ 0000014296cf9600] Forcing full internal H chroma due to input having non subsampled chroma
[swscaler @ 0000014295bfce00] [swscaler @ 0000014296d0c740] Forcing full internal H chroma due to input having non subsampled chroma
[auto_scale_1 @ 0000014295a2a680] w:16 h:16 fmt:rgba sar:1/1 -> w:16 h:16 fmt:bgra sar:1/1 flags:0x0
[Parsed_paletteuse_0 @ 0000014295a29a80] [framesync @ 0000014295c46088] Selected 1/50 time base
[Parsed_paletteuse_0 @ 0000014295a29a80] [framesync @ 0000014295c46088] Sync level 2
Output #0, gif, to 'D:/GithubProjects/DuxMovil/resources/obstacles/light_pole_electric/light_pole_electric.gif':
  Metadata:
    encoder         : Lavf59.16.100
  Stream #0:0, 0, 1/100: Video: gif, 1 reference frame, pal8(pc, gbr/unknown/unknown, progressive), 80x80 (0x0) [SAR 1:1 DAR 1:1], 0/1, q=2-31, 200 kb/s, 10 fps, 100 tbn
    Metadata:
      encoder         : Lavc59.18.100 gif
Clipping frame in rate conversion by 0.000008
[gif @ 00000142959ba6c0] 52x76 image at pos (14;2) [area:80x80]
frame=    1 fps=0.0 q=-0.0 size=       0kB time=00:00:00.01 bitrate=   0.0kbits/s speed=12.4x    [gif @ 00000142959ba6c0] 52x76 image at pos (14;2) [area:80x80]
    Last message repeated 12 times
[Parsed_paletteuse_0 @ 0000014295a29a80] [framesync @ 0000014295c46088] Sync level 0
[out_0_0 @ 0000014295a2a780] EOF on sink link out_0_0:default.
No more output streams to write to, finishing.
frame=   14 fps=0.0 q=-0.0 Lsize=      13kB time=00:00:01.31 bitrate=  82.4kbits/s speed=83.9x    
[AVIOContext @ 00000142959abe40] Statistics: 380 bytes written, 0 seeks, 2 writeouts
video:13kB audio:0kB subtitle:0kB other streams:0kB global headers:0kB muxing overhead: 0.148445%
Input file #0 (D:/GithubProjects/DuxMovil/resources/obstacles/light_pole_electric/light_pole_electric%04d.png):
  Input stream #0:0 (video): 14 packets read (35291 bytes); 14 frames decoded; 
  Total: 14 packets (35291 bytes) demuxed
Input file #1 (D:/GithubProjects/DuxMovil/resources/obstacles/light_pole_electric/palette.png):
  Input stream #1:0 (video): 1 packets read (289 bytes); 1 frames decoded; 
  Total: 1 packets (289 bytes) demuxed
Output file #0 (D:/GithubProjects/DuxMovil/resources/obstacles/light_pole_electric/light_pole_electric.gif):
  Output stream #0:0 (video): 14 frames encoded; 14 packets muxed (13473 bytes); 
  Total: 14 packets (13473 bytes) muxed
[AVIOContext @ 00000142959bb8c0] Statistics: 13493 bytes written, 0 seeks, 1 writeouts
15 frames successfully decoded, 0 decoding errors
[AVIOContext @ 00000142959c9b40] Statistics: 289 bytes read, 0 seeks
